Coordinates
version=1
nRows=14
nColumns=24
inDegrees=yes

Units are S.I. units (second, meters, Newtons, ...)
Angles are in degrees.

endheader
time	pelvis_tilt	pelvis_list	pelvis_rotation	pelvis_tx	pelvis_ty	pelvis_tz	hip_flexion_r	hip_adduction_r	hip_rotation_r	knee_angle_r	ankle_angle_r	subtalar_angle_r	mtp_angle_r	hip_flexion_l	hip_adduction_l	hip_rotation_l	knee_angle_l	ankle_angle_l	subtalar_angle_l	mtp_angle_l	lumbar_extension	lumbar_bending	lumbar_rotation
      2.09000000	     23.86788993	      2.66956390	     -4.58867183	      0.74962811	      0.96685797	     -0.00728699	    -35.22082821	     -6.55147946	     -7.26704395	    -33.22650819	     -7.33423988	     -1.65908387	     50.48123766	    -10.42557443	      6.20531866	    -13.33011313	     -9.57025540	     -0.03103471	      5.28831543	     22.43315801	    -28.78445425	     -7.68805781	     -4.59207353
      2.09500000	     23.83750465	      2.81580461	     -4.75010446	      0.75537968	      0.96758161	     -0.00795851	    -34.33421512	     -6.95733840	     -7.24069766	    -34.89624171	     -8.83839618	     -2.33162705	     50.64205298	    -10.85813117	      6.48940738	    -13.28860905	     -9.39133263	      0.31155282	      5.31807011	     22.12211009	    -28.68473970	     -7.91743048	     -4.57484412
      2.10000000	     23.82109517	      3.01264090	     -4.94599103	      0.76116282	      0.96829702	     -0.00861336	    -33.44493686	     -7.45271078	     -7.26758807	    -36.56118113	    -10.10842904	     -2.82383554	     50.63108435	    -11.35580253	      6.84531023	    -13.26792469	     -9.08921556	      0.51447596	      5.45489872	     21.96466248	    -28.58828814	     -8.21109089	     -4.53880411
      2.10500000	     23.79024115	      3.11139769	     -5.11723144	      0.76682793	      0.96904249	     -0.00925524	    -32.53746719	     -7.81680992	     -7.18603109	    -38.13570872	    -11.39607897	     -3.43781509	     50.65391298	    -11.81589939	      7.08702407	    -13.26091221	     -8.84995290	      0.83563566	      5.52456896	     21.57064681	    -28.49290107	     -8.39005660	     -4.49204502
      2.11000000	     23.78483936	      3.26082828	     -5.30541094	      0.77252339	      0.96980305	     -0.00990398	    -31.65674391	     -8.25728843	     -7.15756252	    -39.67318864	    -12.41265122	     -3.79896039	     50.54629397	    -12.34369446	      7.39770260	    -13.26499210	     -8.50811410	      0.99428968	      5.66088578	     21.47557791	    -28.41734869	     -8.62504411	     -4.46895545
      2.11500000	     23.74520117	      3.31859182	     -5.50309489	      0.77806550	      0.97053500	     -0.01050278	    -30.70790108	     -8.58792213	     -7.01993559	    -41.18463086	    -13.20555716	     -4.36287666	     50.35380038	    -12.83200059	      7.61212132	    -13.24657832	     -8.17009828	      1.21126411	      5.72169526	     21.27444043	    -28.31907238	     -8.76853142	     -4.32472092
      2.12000000	     23.72842420	      3.37734296	     -5.67935480	      0.78360646	      0.97131498	     -0.01112464	    -29.80332366	     -8.90914295	     -6.90343569	    -42.60223523	    -13.88757091	     -4.72756364	     50.15789693	    -13.34245378	      7.82491851	    -13.26929474	     -7.83915610	      1.38842743	      5.81330520	     21.14137077	    -28.24744943	     -8.90072647	     -4.26334690
      2.12500000	     23.69231119	      3.38764176	     -5.87207081	      0.78903710	      0.97207342	     -0.01168703	    -28.85439488	     -9.17310204	     -6.72356207	    -43.99225667	    -14.28751403	     -5.12420025	     49.91477389	    -13.83468626	      7.98877821	    -13.28729795	     -7.49693047	      1.56988413	      5.88904560	     20.99382128	    -28.16564245	     -8.99108078	     -4.12847498
      2.13000000	     23.60611280	      3.34888905	     -6.01176610	      0.79435898	      0.97277483	     -0.01227521	    -27.84431293	     -9.34032697	     -6.53654947	    -45.37111608	    -14.19662076	     -5.23480546	     47.55002974	    -14.23922001	      8.07049287	    -13.27767907	     -7.24831178	      2.06191519	      6.23725909	     19.35732413	    -28.05041161	     -9.00508841	     -4.00799246
      2.13500000	     23.60446629	      3.29682158	     -6.21881902	      0.79966934	      0.97358866	     -0.01279514	    -26.93110752	     -9.53164379	     -6.31302718	    -46.62839230	    -14.19000892	     -5.50147773	     47.49039907	    -14.78255649	      8.18206966	    -13.34514617	     -6.87223250	      2.18672580	      6.26637304	     19.30252324	    -28.01700734	     -9.03376883	     -3.82166905
      2.14000000	     23.54014022	      3.22159623	     -6.39969410	      0.80488712	      0.97432438	     -0.01331535	    -25.93995537	     -9.66658258	     -6.08489864	    -47.85083549	    -13.94177288	     -5.73013624	     47.36852196	    -15.23480577	      8.25015365	    -13.40039554	     -6.53931604	      2.33906638	      6.34896510	     19.24399009	    -27.93093854	     -9.02266888	     -3.64214987
      2.14500000	     23.43683975	      3.15097082	     -6.55658629	      0.81002215	      0.97497541	     -0.01385948	    -24.88855014	     -9.79393674	     -5.89854056	    -49.07868521	    -13.30555420	     -5.58520038	     45.50200971	    -15.60814485	      8.30494664	    -13.44303331	     -6.28739794	      2.68793498	      6.55620177	     18.48941165	    -27.81523626	     -9.00240367	     -3.48216190
      2.15000000	     23.35929598	      3.01204251	     -6.75033950	      0.81511097	      0.97569440	     -0.01430355	    -23.87491445	     -9.83902168	     -5.63125587	    -50.17445831	    -12.81098147	     -5.73635421	     45.43788232	    -16.05137359	      8.30832250	    -13.54512121	     -5.93994974	      2.82150693	      6.64328460	     18.44415513	    -27.72985750	     -8.93016421	     -3.25338179
      2.15500000	     23.28008541	      2.88286647	     -6.91658244	      0.82011321	      0.97638778	     -0.01475836	    -22.86515645	     -9.86955520	     -5.40732850	    -51.21753339	    -12.08147603	     -5.84030579	     45.35218619	    -16.46525669	      8.30776189	    -13.64711022	     -5.64211063	      2.94372312	      6.76437884	     18.41532179	    -27.65735234	     -8.85500995	     -3.06453748
